<svg xmlns="http://www.w3.org/2000/svg" width="24" height="24" viewBox="0 0 24 24" fill="none" stroke="#e8edf7" stroke-width="2" stroke-linecap="round" stroke-linejoin="round">
  <path d="M12 15.5A3.5 3.5 0 1 0 12 8a3.5 3.5 0 0 0 0 7.5Z"/>
  <path d="M19.4 15a1.8 1.8 0 0 0 .36 1.98l.05.05a2.1 2.1 0 1 1-2.97 2.97l-.05-.05a1.8 1.8 0 0 0-1.98-.36 1.8 1.8 0 0 0-1.09 1.65V21a2.1 2.1 0 1 1-4.2 0v-.08a1.8 1.8 0 0 0-1.09-1.65 1.8 1.8 0 0 0-1.98.36l-.05.05a2.1 2.1 0 1 1-2.97-2.97l.05-.05A1.8 1.8 0 0 0 4.6 15a1.8 1.8 0 0 0-1.65-1.09H3a2.1 2.1 0 1 1 0-4.2h.08A1.8 1.8 0 0 0 4.73 8.6a1.8 1.8 0 0 0-.36-1.98l-.05-.05A2.1 2.1 0 1 1 7.29 3.6l.05.05A1.8 1.8 0 0 0 9.32 4 1.8 1.8 0 0 0 10.4 2.35V2a2.1 2.1 0 1 1 4.2 0v.08A1.8 1.8 0 0 0 15.68 4a1.8 1.8 0 0 0 1.98-.36l.05-.05a2.1 2.1 0 1 1 2.97 2.97l-.05.05A1.8 1.8 0 0 0 20.27 8c.23.56.74.95 1.34 1.04H21a2.1 2.1 0 1 1 0 4.2h-.08A1.8 1.8 0 0 0 19.4 15Z"/>
</svg>
